<?xml version="1.0" encoding="utf-8"?>
<svg xmlns="http://www.w3.org/2000/svg" viewBox="0 0 500 500" xmlns:bx="https://boxy-svg.com">
  <defs>
    <bx:export>
      <bx:file format="png" href="#object-0"/>
    </bx:export>
  </defs>
  <g transform="matrix(1, 0, 0, 1, -0.331993, -4.250465)" id="object-0">
    <g transform="matrix(0.1, 0, 0, -0.1, -264.333038, 732.870972)" fill="#000000" stroke="none">
      <path d="M 2674.86 4786.2 L 2674.86 4016.39 L 2834.43 4016.39 L 2993.99 4016.39 L 2993.99 4365.75 L 2993.99 4715.1 L 3155.24 4717.89 C 3291.28 4720.11 3324.3 4722.36 3371.34 4733.01 C 3593.03 4781.15 3716.76 4916.07 3725.72 5119.88 C 3736.93 5364.53 3584.66 5526.89 3322.07 5550.42 C 3287.93 5553.2 3128.36 5556.02 2967.13 5556.02 L 2674.86 5556.02 L 2674.86 4786.2 Z M 3282.34 5296.8 C 3323.74 5285.03 3343.34 5273.28 3365.18 5247.51 C 3392.07 5216.18 3402.7 5182.56 3402.7 5128.29 C 3402.14 5059.96 3378.61 5015.74 3327.68 4989.42 C 3287.36 4968.7 3238.66 4962.54 3113.24 4962.54 L 2993.99 4962.54 L 2993.99 5136.66 L 2993.99 5311.35 L 3124.43 5307.97 C 3212.34 5306.32 3263.3 5302.41 3282.34 5296.8 Z" style=""/>
      <path d="M 3850.57 5113.72 L 3850.57 4671.44 L 4001.74 4671.44 L 4152.9 4671.44 L 4152.9 5113.72 L 4152.9 5556.02 L 4001.74 5556.02 L 3850.57 5556.02 L 3850.57 5113.72 Z" style=""/>
      <path d="M 4388.03 5202.17 C 4388.03 5007.36 4389.73 4660.79 4391.95 4432.37 L 4395.34 4016.39 L 4541.45 4016.39 L 4687.56 4016.39 L 4686.44 4059.51 C 4685.34 4083.56 4684.2 4373.03 4683.65 4702.78 L 4681.95 5302.96 L 4708.85 5226.25 C 4723.95 5184.27 4768.76 5057.16 4808.49 4942.96 C 4848.26 4829.3 4886.32 4721.25 4892.48 4703.91 L 4904.24 4671.44 L 5040.85 4671.44 L 5176.89 4671.44 L 5169.6 4692.7 C 5128.74 4804.69 4912.64 5389.73 4885.2 5462.5 L 4849.94 5556.02 L 4619.28 5556.02 L 4388.03 5556.02 L 4388.03 5202.17 Z" style=""/>
      <path d="M 5524.56 5462.5 C 5455.72 5275.5 5239.03 4678.13 5239.03 4674.78 C 5239.03 4673.12 5296.7 4671.44 5367.24 4671.44 L 5495.44 4671.44 L 5517.84 4737.5 C 5627.02 5057.16 5712.69 5298.47 5718.85 5304.05 C 5720.52 5305.76 5720.52 5281.66 5718.28 5250.89 C 5716.6 5220.09 5714.91 5077.9 5714.35 4934.58 L 5713.81 4674.22 L 5859.94 4672.55 L 6006.05 4671.44 L 6006.05 5113.72 L 6006.05 5556.02 L 5782.66 5556.02 L 5559.27 5556.02 L 5524.56 5462.5 Z" style=""/>
      <path d="M 6621.89 5465.32 C 6602.31 5414.94 6523.35 5218.98 6446.65 5029.73 C 6369.95 4840.5 6306.14 4681.51 6305.02 4677.02 C 6302.77 4669.74 6321.81 4668.63 6457.85 4669.74 L 6613.49 4670.88 L 6667.8 4815.31 C 6698.05 4894.81 6743.94 5020.22 6770.27 5094.11 C 6796.57 5168.02 6819.52 5232.41 6821.77 5236.9 C 6824.01 5243.03 6825.69 5241.37 6829.05 5231.3 C 6832.95 5218.41 6986.35 4811.39 7024.44 4713.42 L 7041.8 4668.63 L 7199.68 4666.39 C 7331.78 4664.71 7356.41 4665.84 7353.65 4672.01 C 7330.69 4728.52 7096.65 5314.14 7055.77 5417.71 L 7001.48 5556.02 L 6829.61 5556.02 L 6657.73 5556.02 L 6621.89 5465.32 Z" style=""/>
      <path d="M 3089.16 4467.06 L 3089.16 4335.51 L 3685.43 4335.51 L 4281.68 4335.51 L 4281.68 4467.06 L 4281.68 4598.65 L 3685.43 4598.65 L 3089.16 4598.65 L 3089.16 4467.06 Z" style=""/>
      <path d="M 4785.55 4465.95 L 4785.55 4335.51 L 6138.19 4335.51 C 7218.15 4335.51 7490.24 4337.19 7487.99 4342.79 C 7486.32 4346.14 7462.26 4404.95 7434.27 4472.68 L 7383.86 4595.85 L 6084.98 4595.85 L 4785.55 4595.85 L 4785.55 4465.95 Z" style="paint-order: fill; fill-rule: nonzero;"/>
      <path d="M 5015.65 4233.6 C 5021.81 4217.4 5042.52 4162.53 5061.56 4111.56 L 5096.3 4019.2 L 5203.22 4017.51 L 5310.15 4016.39 L 5341.48 4101.5 C 5358.28 4148.53 5378.98 4203.94 5386.85 4225.21 L 5401.39 4262.73 L 5202.65 4262.73 L 5004.45 4262.73 L 5015.65 4233.6 Z" style=""/>
      <path d="M 5714.91 4139.55 L 5714.91 4016.39 L 5860.48 4016.39 L 6006.05 4016.39 L 6006.05 4139.55 L 6006.05 4262.73 L 5860.48 4262.73 L 5714.91 4262.73 L 5714.91 4139.55 Z" style=""/>
      <path d="M 6146.56 4242.56 C 6142.65 4231.37 6119.14 4177.09 6095.06 4122.21 C 6070.98 4067.34 6050.82 4021.43 6050.82 4019.2 C 6050.82 4017.51 6123.06 4016.96 6210.95 4017.51 L 6371.07 4019.2 L 6419.8 4141.24 L 6468.48 4262.73 L 6311.18 4262.73 L 6153.85 4262.73 L 6146.56 4242.56 Z" style=""/>
      <path d="M 7187.9 4258.82 C 7187.9 4256 7211.41 4201.7 7239.98 4136.76 L 7291.48 4019.2 L 7454.98 4017.51 L 7618.44 4016.39 L 7611.18 4034.3 C 7607.23 4044.38 7584.85 4099.82 7561.9 4157.47 L 7520.47 4262.73 L 7354.2 4262.73 C 7262.38 4262.73 7187.35 4261.06 7187.9 4258.82 Z" style=""/>
      <path d="M 3850.57 4136.76 L 3850.57 4016.39 L 4001.74 4016.39 L 4152.9 4016.39 L 4152.9 4099.26 C 4152.9 4144.59 4154.59 4198.35 4156.84 4219.6 L 4160.19 4257.14 L 4005.09 4257.14 L 3850.57 4257.14 L 3850.57 4136.76 Z" style=""/>
    </g>
  </g>
</svg>